<svg width="24" height="25" viewBox="0 0 24 25" fill="none" xmlns="http://www.w3.org/2000/svg">
<g id="About us icon">
<path id="Rectangle 754" d="M7 18.5C7 17.3954 7.89543 16.5 9 16.5C10.1046 16.5 11 17.3954 11 18.5V22.5H7V18.5Z" stroke="#28303F" stroke-width="1.5" stroke-linejoin="round"/>
<path id="Vector" d="M22 8.75V6.5C22 4.29086 20.2091 2.5 18 2.5H6C3.79086 2.5 2 4.29086 2 6.5V8.75C2 10.8211 3.49238 12.5 5.33333 12.5C7.17428 12.5 8.66667 10.8211 8.66667 8.75C8.66667 10.8211 10.1591 12.5 12 12.5C13.841 12.5 15.3333 10.8211 15.3333 8.75C15.3333 10.8211 16.8257 12.5 18.6667 12.5C20.5076 12.5 22 10.8211 22 8.75Z" stroke="#28303F" stroke-width="1.5" stroke-linejoin="round"/>
<path id="Rectangle 755" d="M14 15.5C14 14.9477 14.4477 14.5 15 14.5H17C17.5523 14.5 18 14.9477 18 15.5V16.5C18 17.0523 17.5523 17.5 17 17.5H15C14.4477 17.5 14 17.0523 14 16.5V15.5Z" stroke="#28303F" stroke-width="1.5" stroke-linejoin="round"/>
<path id="Rectangle 753" d="M21 11.5V18.5C21 20.7091 19.2091 22.5 17 22.5H7C4.79086 22.5 3 20.7091 3 18.5V11.5" stroke="#28303F" stroke-width="1.5" stroke-linejoin="round"/>
</g>
</svg>
