<svg width="24" height="25" viewBox="0 0 24 25" fill="none" xmlns="http://www.w3.org/2000/svg">
<g id="Dostawka icon">
<path id="Vector 1973" d="M5 10.5L6.75282 11.9023C7.1707 12.2366 7.7777 12.1826 8.13009 11.7799L11 8.5" stroke="#28303F" stroke-width="1.5" stroke-linecap="round" stroke-linejoin="round"/>
<path id="Vector" d="M14 19.5V7.5M14 19.5H16M14 19.5H9M14 7.5C14 5.29086 12.2091 3.5 10 3.5H6C3.79086 3.5 2 5.29086 2 7.5V15.5C2 17.3652 3.27667 18.9323 5.00384 19.375M14 7.5H17.2091C17.7172 7.5 18.2063 7.6934 18.577 8.04093L21.3679 10.6574C21.7712 11.0355 22 11.5636 22 12.1165V17.5C22 18.6046 21.1046 19.5 20 19.5M20 19.5C20 20.6046 19.1046 21.5 18 21.5C16.8954 21.5 16 20.6046 16 19.5M20 19.5C20 18.3954 19.1046 17.5 18 17.5C16.8954 17.5 16 18.3954 16 19.5M9 19.5C9 20.6046 8.10457 21.5 7 21.5C5.89543 21.5 5 20.6046 5 19.5C5 19.458 5.00129 19.4163 5.00384 19.375M9 19.5C9 18.3954 8.10457 17.5 7 17.5C5.93742 17.5 5.06838 18.3286 5.00384 19.375" stroke="#28303F" stroke-width="1.5"/>
</g>
</svg>
