<svg width="24" height="25" viewBox="0 0 24 25" fill="none" xmlns="http://www.w3.org/2000/svg">
<g id="email with heart icon">
<path id="Vector" d="M6 13.5L8.2 15.15C9.26667 15.95 10.7333 15.95 11.8 15.15L14 13.5M18.2191 7.52391L16.365 5.20626C16.1287 4.91091 16 4.54394 16 4.1657V4.09099C16 3.21231 16.7123 2.5 17.591 2.5C18.0129 2.5 18.4176 2.66762 18.716 2.96599L19 3.25L19.284 2.96599C19.5824 2.66762 19.9871 2.5 20.409 2.5C21.2877 2.5 22 3.21231 22 4.09099V4.1657C22 4.54394 21.8713 4.91091 21.635 5.20626L19.7809 7.52391C19.3805 8.02432 18.6195 8.02432 18.2191 7.52391ZM5 22.5H15C16.6569 22.5 18 21.1569 18 19.5V11.5C18 9.84315 16.6569 8.5 15 8.5H5C3.34315 8.5 2 9.84315 2 11.5V19.5C2 21.1569 3.34315 22.5 5 22.5Z" stroke="#28303F" stroke-width="1.5" stroke-linecap="round" stroke-linejoin="round"/>
</g>
</svg>
