<svg width="24" height="25" viewBox="0 0 24 25" fill="none" xmlns="http://www.w3.org/2000/svg">
<g id="fax icon">
<path id="Vector" d="M20 11.5H4M20 11.5C21.1046 11.5 22 12.3954 22 13.5V17.5C22 19.7091 20.2091 21.5 18 21.5H6C3.79086 21.5 2 19.7091 2 17.5V13.5C2 12.3954 2.89543 11.5 4 11.5M20 11.5V9.5C20 8.39543 19.1046 7.5 18 7.5M4 11.5V9.5C4 8.39543 4.89543 7.5 6 7.5M18 7.5H6M18 7.5V5.5C18 4.39543 17.1046 3.5 16 3.5H8C6.89543 3.5 6 4.39543 6 5.5V7.5M10 14.5H14" stroke="#28303F" stroke-width="1.5" stroke-linecap="round"/>
</g>
</svg>
