<svg width="164" height="23" viewBox="0 0 164 23" fill="none" xmlns="http://www.w3.org/2000/svg">
<g id="homedecor">
<path id="Vector" fill-rule="evenodd" clip-rule="evenodd" d="M78.15 5.95148L77.8642 7.41953C78.7591 8.10788 78.6161 7.29772 78.9579 8.35156C79.1755 9.02163 78.9579 13.9802 78.9207 14.9914C78.9207 16.3437 79.0387 17.891 78.9207 19.2067C78.7218 21.954 77.5286 19.1336 77.5286 22.4901C80.9591 22.1672 84.8992 23.0566 88.2179 21.8322C92.8603 20.1205 93.749 9.52722 88.597 6.4327C86.4902 5.15956 80.8845 5.45806 78.1252 5.95148H78.15ZM82.5003 20.4616C82.7676 19.5113 82.9167 9.58204 83.1529 7.53527C84.7936 7.46217 86.7885 8.14444 87.2981 9.27747C88.9761 12.9385 88.5224 21.8078 82.5003 20.4494V20.4616Z" fill="#28303F"/>
<path id="Vector_2" fill-rule="evenodd" clip-rule="evenodd" d="M43.1115 15.2167L39.855 5.97581C38.1945 5.56436 36.4603 5.52896 34.7838 5.87226C33.9261 8.17488 35.1442 6.62152 35.3244 8.74139L34.9888 20.1022C34.3674 20.9306 33.8205 20.6261 34.1436 22.2464C35.3891 22.4885 36.6622 22.5643 37.9284 22.4718C39.7928 22.4414 40.1905 22.8556 40.0538 20.888C39.5852 20.6407 39.083 20.4601 38.5623 20.3519L38.7363 8.2236C39.451 9.30181 42.3471 19.6941 43.6335 21.351C45.3488 21.4362 45.0194 21.4545 45.3488 19.8159C45.5837 18.9078 45.8869 18.018 46.2561 17.1539C46.8776 15.3264 47.4991 13.8888 48.1205 12.0187C48.4499 12.6278 48.2137 16.2828 48.1702 16.9894C47.8906 21.8627 48.3318 19.8463 46.6352 20.8088C46.4488 22.2403 46.3369 22.2891 47.8781 22.3682C48.9133 22.5105 49.9662 22.4672 50.9855 22.2403C51.3832 20.1753 50.9855 21.1195 50.0036 20.3276C49.6866 17.1356 50.1279 10.9344 50.3889 7.5779C51.5573 7.16367 52.0234 7.34642 51.4454 5.52504C45.4171 5.06817 46.7781 6.26211 45.8149 8.73529C45.1188 10.5689 44.429 14.1568 43.1115 15.2167Z" fill="#28303F"/>
<path id="Vector_3" fill-rule="evenodd" clip-rule="evenodd" d="M140.689 22.149L144.299 22.3195L144.337 20.9916L143.715 20.6626C143.038 20.1692 143.175 19.6514 143.175 17.9092L147.264 17.8544L148.339 20.291C147.37 20.9002 146.99 20.5347 147.32 22.0576H153.174V20.7601C151.844 19.9986 151.931 20.9489 151.353 19.4016C150.993 18.4087 150.614 17.9579 150.427 16.9224C151.801 16.1853 152.441 15.4543 152.727 13.6573C152.95 12.2562 153.118 9.96579 152.509 8.71701C151.855 7.5268 150.826 6.57586 149.576 6.00627C149.414 5.93317 138.569 4.35545 140.975 7.32814C142.255 8.90585 141.546 7.93731 141.509 12.3111C141.509 13.2126 141.621 19.7123 141.292 20.2301C140.856 20.9428 139.918 20.5956 140.67 22.1185L140.689 22.149ZM143.268 15.9965C142.945 14.4431 143.355 9.29572 143.46 7.40733C148.121 6.96264 148.687 8.24187 148.693 11.8785C148.693 16.3559 147.686 16.1853 143.268 15.9965Z" fill="#28303F"/>
<path id="Vector_4" fill-rule="evenodd" clip-rule="evenodd" d="M10.3475 6.987C11.3108 7.71189 11.4786 6.81034 11.4475 10.9892C11.4475 12.3963 11.6339 15.101 11.1554 16.1792C10.1051 16.6056 6.37008 16.2888 5.05256 16.1426L5.36951 7.32204C5.9164 6.71289 5.82318 6.71289 5.71132 5.64686C3.91527 5.64686 1.88927 5.56158 0.379097 5.98799L0.087006 7.41949C1.82091 7.94946 1.55989 7.51697 1.54746 13.2187C1.54746 14.5771 1.21187 15.3203 1.31752 16.7701C1.49702 18.0176 1.5179 19.2821 1.37967 20.5347L0.0559324 20.9489L0 22.4596C1.49775 22.4596 5.48137 22.551 6.5068 22.2159L6.56895 20.9976L5.24522 20.4494L5.20171 17.9275L11.4164 18.1407L11.3418 20.8027L9.86275 21.0768C9.6328 23.5134 10.8633 22.2586 13.3181 22.3926C14.213 22.4413 14.039 22.5388 14.7413 22.1367L14.3063 21.0403L14.1509 20.9733C13.8893 20.8786 13.644 20.745 13.4238 20.5773C13.2995 18.6158 13.5232 8.94239 13.9707 7.57788C14.9712 6.81643 15.1577 7.4865 15.0272 5.65294C10.3537 6.00016 10.1735 4.79403 10.3475 6.987Z" fill="#28303F"/>
<path id="Vector_5" fill-rule="evenodd" clip-rule="evenodd" d="M129.626 5.60421C127.719 6.05498 127.047 6.30474 126.357 8.04084C125.668 9.77694 125.202 16.3497 127.37 17.7874C128.713 18.6889 134.611 19.761 135.617 15.9964C136.054 14.2117 136.149 12.3631 135.897 10.5445C135.276 7.05399 133.666 4.61128 129.626 5.56766V5.60421ZM130.074 16.5142C129.421 15.101 129.751 13.1639 129.807 11.4338C129.906 8.33324 129.807 7.46823 131.578 7.4865C132.659 8.97285 132.38 10.648 132.504 12.7679C132.634 15.101 133.057 17.032 130.074 16.5142Z" fill="#28303F"/>
<path id="Vector_6" fill-rule="evenodd" clip-rule="evenodd" d="M23.4978 5.62259C21.534 6.10382 20.8379 6.46931 20.2351 8.32115C19.7006 9.95369 19.1165 16.49 21.3973 17.8484C22.7396 18.6464 24.7781 18.8291 26.5555 18.5306C28.3329 18.2322 29.2402 17.4951 29.6628 15.7772C30.3402 12.9264 30.0792 8.4308 28.0967 6.40231C27.2142 5.49466 24.8837 5.29364 23.5165 5.62259H23.4978ZM24.0385 16.5874C23.473 15.3691 23.1933 5.22053 25.76 7.80336C26.5617 8.61354 26.3815 11.8055 26.4809 13.0787C26.6487 15.5762 26.8476 16.7945 24.0385 16.5631V16.5874Z" fill="#28303F"/>
<path id="Vector_7" fill-rule="evenodd" clip-rule="evenodd" d="M65.5279 14.5467C65.5279 13.036 65.6771 12.8898 64.0178 12.9507C62.9763 12.9861 61.9384 13.0879 60.9104 13.2553C60.6805 15.4117 61.2211 14.0229 61.4946 15.2777C61.8488 16.8615 59.2635 17.5864 59.0087 15.4422C58.9384 14.4863 58.955 13.5261 59.0584 12.5731C61.2211 12.1527 63.9121 12.433 65.2731 11.9639L65.4534 11.8847C65.9257 8.4247 65.0059 5.70785 61.5008 5.42154C57.8403 5.12305 56.1624 7.24902 55.8703 10.5324C55.603 13.5782 55.168 17.4829 58.7974 18.3052C60.8731 18.7743 64.0985 18.9631 64.3534 16.2828C64.5149 14.5833 64.3534 15.3691 65.5093 14.5346L65.5279 14.5467ZM59.3132 10.7151C59.2912 9.89222 59.396 9.07077 59.624 8.27849C59.9285 7.37694 60.2019 7.32212 61.3081 7.26121V10.8065L59.3132 10.7151Z" fill="#28303F"/>
<path id="Vector_8" fill-rule="evenodd" clip-rule="evenodd" d="M105.75 15.1437L106.843 14.5833L106.769 13.1396C105.805 12.835 103.183 13.036 102.207 13.2797C101.983 15.7163 103.581 14.0533 102.549 16.5387C101.617 16.8372 100.641 16.9164 100.38 15.8321C100.224 14.7919 100.224 13.735 100.38 12.6949L106.769 12.0309C106.93 8.60134 106.638 6.01242 103.183 5.48246C99.6094 4.94031 97.7761 6.85916 97.254 9.80748C97.0456 11.4581 96.9874 13.1236 97.08 14.7843C97.3348 18.1408 100.566 18.9814 103.562 18.4027C105.737 17.9824 105.501 17.2879 105.725 15.1498L105.75 15.1437ZM100.616 10.7029C100.615 9.88039 100.724 9.06122 100.939 8.26631C101.25 7.3343 101.499 7.29775 102.63 7.24293V10.7882L100.616 10.7029Z" fill="#28303F"/>
<path id="Vector_9" fill-rule="evenodd" clip-rule="evenodd" d="M113.164 19.2311C113.269 17.696 112.747 17.2392 112.841 15.2716C112.983 12.4755 112.437 8.22972 115.488 7.42563C115.773 7.35087 116.069 7.32004 116.364 7.33426C117.551 7.52919 117.439 8.50385 117.464 10.2887L116.271 10.7273C116.19 12.5913 115.799 12.1771 121.659 12.104C121.883 10.1486 121.752 10.8369 120.77 10.1181C120.77 7.68148 121.069 5.98193 118.508 5.66517C111.287 4.7758 110.846 11.3242 111.206 16.8067C111.287 18.0737 111.765 20.5408 112.617 21.3997C114.257 23.0383 118.179 22.7459 119.639 21.284C120.733 20.1936 120.317 18.7803 120.385 17.0564C121.348 16.2645 121.237 17.0564 121.187 15.034C119.608 15.034 117.365 14.7233 116.134 15.4543C115.998 17.891 116.526 16.0635 116.756 17.4828C117.073 19.2798 116.818 21.0586 114.438 20.6748C113.456 20.4982 113.356 20.023 113.164 19.2311Z" fill="#28303F"/>
<path id="Vector_10" fill-rule="evenodd" clip-rule="evenodd" d="M55.8765 22.3255C57.0013 22.7885 63.1477 22.1428 65.1985 22.1245V19.3894C63.185 19.3894 61.0409 19.5539 58.9838 19.566C56.3736 19.5843 55.0685 18.8411 55.8765 22.3255Z" fill="#28303F"/>
<path id="Vector_11" fill-rule="evenodd" clip-rule="evenodd" d="M97.198 19.6513C96.962 20.5277 96.962 21.4491 97.198 22.3255C98.2421 22.7702 104.507 22.1428 106.52 22.1245V19.3894L97.198 19.6513Z" fill="#28303F"/>
<path id="Vector_12" fill-rule="evenodd" clip-rule="evenodd" d="M29.4142 22.2159C29.4741 21.8126 29.495 21.4047 29.4764 20.9976C29.4018 20.029 29.5509 20.3884 29.1346 20.0412C28.4572 19.3346 21.8509 19.7793 20.4029 19.8463C18.9238 22.7154 20.8814 22.49 23.1746 22.4474C24.7532 22.4047 28.0967 22.6606 29.4142 22.2159Z" fill="#28303F"/>
<path id="Vector_13" fill-rule="evenodd" clip-rule="evenodd" d="M126.239 19.9316C126.146 20.9062 125.947 21.3144 126.239 22.2647C127.545 22.5875 134.064 22.551 135.45 22.2647V19.9194C134.008 19.5661 127.737 19.6026 126.239 19.9316Z" fill="#28303F"/>
<path id="Vector_14" fill-rule="evenodd" clip-rule="evenodd" d="M154.889 5.62253V0.956382H153.186V0.00609753H157.742V0.956382H156.051V5.62863L154.889 5.62253ZM158.475 5.62253V0H160.215L161.241 3.8377L162.26 0H164V5.62253H162.931V1.19396L161.8 5.62253H160.681L159.556 1.19396V5.62253H158.475Z" fill="#28303F"/>
</g>
</svg>
