<svg width="24" height="25" viewBox="0 0 24 25" fill="none" xmlns="http://www.w3.org/2000/svg">
<g id="icq_logo_icon_145174 1">
<path id="Vector" d="M14.4167 3.01157C13.7667 2.95858 13.1514 3.08726 12.5489 3.40581C11.7414 3.82655 11.1685 4.47627 10.9075 5.3209V5.37641L10.8772 5.57763L10.7641 5.37641L10.476 4.87114C10.0163 4.16781 9.44411 3.74392 8.72465 3.54711C8.09456 3.40833 7.5757 3.46447 7.02983 3.75085C6.42739 4.11482 6.08276 4.68001 5.93874 5.46913C5.79472 6.28664 5.93874 7.07576 6.37081 7.86362L6.57141 8.14622L5.87766 7.92355C5.01675 7.72232 4.21371 7.83461 3.40616 8.2585C2.57611 8.67924 2.05661 9.27029 1.71584 10.0922C1.39758 10.8801 1.4278 11.6433 1.82964 12.3454C2.00003 12.6583 2.26171 12.9074 2.48867 13.079C2.83393 13.4171 3.26535 13.6139 3.78164 13.6997L3.98224 13.7521L3.5534 14.1236C3.14898 14.4586 2.92073 14.8825 2.77671 15.3026C2.63269 15.8122 2.68991 16.3175 2.97731 16.7969C3.12455 17.024 3.26535 17.2208 3.4936 17.3621C3.72506 17.5595 4.01311 17.7008 4.35773 17.7305C4.99039 17.8718 5.6507 17.8718 6.36695 17.6447L5.85066 18.4893L5.70664 18.8577C5.4186 19.761 5.50604 20.5457 5.9381 21.3638C6.1387 21.6761 6.36695 21.9587 6.59713 22.2116C6.93918 22.5201 7.37381 22.7169 7.89331 22.8582C8.75423 23.0853 9.61449 23.0594 10.4445 22.6355C11.2521 22.2116 11.7671 21.531 12.0288 20.687L12.0551 20.5198C12.601 21.1109 13.1173 21.5058 13.6927 21.6471C14.2688 21.818 14.8417 21.7915 15.3612 21.4503C15.8498 21.1708 16.1945 20.6876 16.3693 20.096C16.5134 19.4753 16.5134 18.8577 16.3693 18.1512C16.6542 18.348 16.9422 18.4893 17.2868 18.5751C18.2075 18.8577 19.0119 18.8281 19.8149 18.4079C20.5916 17.9841 21.1079 17.3072 21.3689 16.4329C21.5959 15.5883 21.5393 14.7702 21.1111 13.9785L20.9639 13.7514C20.7356 13.4133 20.5054 13.0752 20.1595 12.8513C19.8721 12.6545 19.5269 12.5132 19.2125 12.3719C20.103 11.948 20.7356 11.357 21.0204 10.5937C21.2255 9.97299 21.1677 9.46773 20.8764 8.95805V8.90254C20.5318 8.3405 20.0766 7.97212 19.3565 7.77531C18.9244 7.69268 18.439 7.68952 18.0069 7.71917L17.0554 7.91661L17.3736 7.21327C17.6617 6.30998 17.5749 5.43633 17.0862 4.61756L17.002 4.47311C16.5699 3.76978 15.9373 3.34589 15.0764 3.12322C14.852 3.06708 14.6347 3.02734 14.4167 3.01157ZM13.9281 4.20124C14.2058 4.17538 14.4836 4.21133 14.7587 4.30974C15.3612 4.45103 15.7933 4.75949 16.0504 5.23889V5.24205C16.1945 5.52149 16.2787 5.86022 16.2787 6.22798L16.1945 6.84868C16.0813 7.15713 15.9373 7.43973 15.763 7.69331L13.1777 10.7949C12.9199 10.5975 12.6319 10.4562 12.3438 10.3149L12.0558 7.12812L12.0294 6.00215L12.0558 5.71956C12.1998 5.15752 12.6016 4.73363 13.1179 4.45103C13.3783 4.30974 13.6503 4.2271 13.9281 4.20124ZM8.02769 4.65415C8.14149 4.64721 8.26494 4.67686 8.37938 4.733C8.89567 4.8743 9.32774 5.23826 9.67236 5.94475C9.81638 6.22735 9.9604 6.50679 10.017 6.84489L10.5931 10.173L10.161 10.3143L7.6027 7.58103L7.45868 7.29843C7.22786 6.79317 7.08641 6.31376 7.14428 5.80408C7.17064 5.29882 7.37252 4.95945 7.71715 4.76265C7.80394 4.69389 7.91067 4.6573 8.02512 4.65415H8.02769ZM18.4255 8.88551C18.556 8.88551 18.6801 8.89245 18.8106 8.90569C19.2999 8.96435 19.6445 9.18829 19.8156 9.52955L19.9332 9.89036L19.876 10.173C19.6754 10.6826 19.2433 11.0769 18.5232 11.386C18.2384 11.5273 17.9208 11.5828 17.5794 11.6389L14.0431 12.0628L13.9859 11.8654L13.9293 11.7802L14.0431 11.6389L16.9461 9.26966L17.2913 9.13152V9.12836C17.6765 8.9612 18.0519 8.88866 18.43 8.88551H18.4255ZM5.17106 9.04068C5.30801 9.04762 5.44881 9.06654 5.59284 9.10313V9.10628L6.37016 9.41159L8.89825 11.2188C8.66678 11.5014 8.52598 11.7834 8.43982 12.0634L4.29986 12.5725L4.01503 12.517C3.49617 12.4312 3.15155 12.2041 2.92009 11.7834C2.68927 11.3601 2.69184 10.94 2.86351 10.5161C3.06411 9.98056 3.43959 9.55667 3.9816 9.33021C4.37059 9.12016 4.75957 9.01734 5.17106 9.04068ZM11.3093 11.3002C11.8288 11.3002 12.3175 11.5014 12.6319 11.8099C13.0376 12.2035 13.2079 12.6274 13.2079 13.137C13.2079 13.6423 13.0376 14.123 12.6319 14.4573C12.2609 14.8257 11.8288 15.0225 11.3093 15.0225C10.7667 15.0225 10.3082 14.8257 9.96362 14.4573C9.58813 14.1223 9.38753 13.6423 9.38753 13.137C9.38753 12.6274 9.58813 12.2035 9.96362 11.8099C10.3082 11.4976 10.7667 11.3002 11.3132 11.3002H11.3093ZM18.5226 13.472L18.8106 13.5016C19.2427 13.6429 19.6484 13.8959 19.8753 14.3166C20.1634 14.6289 20.3074 15.0528 20.3074 15.5328L20.2206 16.0948C20.0766 16.6594 19.7313 17.0795 19.2427 17.3066C18.7277 17.5892 18.2082 17.6447 17.6353 17.4479C17.2907 17.3653 17.0592 17.224 16.8586 16.9981L13.8413 14.5437L14.0425 14.123L14.1293 13.7817L17.3775 13.5016L18.5264 13.472H18.5226ZM12.8363 15.5328L14.0425 16.7414L14.789 17.6447L14.933 17.9273C15.1908 18.4073 15.3348 18.8577 15.2744 19.3926C15.221 19.8991 15.0474 20.2663 14.7015 20.4076C14.5009 20.5489 14.2695 20.5489 14.0425 20.5192C13.4966 20.3811 13.0646 19.9572 12.7495 19.281L12.4049 18.3505L11.9728 15.8961L12.4583 15.729L12.8337 15.5322L12.8363 15.5328ZM9.73215 15.5883C10.017 15.7296 10.305 15.8709 10.6226 15.8968C10.6799 16.8562 10.7641 17.8718 10.9075 18.9681V20.0985L10.8811 20.3779C10.6773 20.8876 10.3327 21.3115 9.81638 21.5342C9.30138 21.8168 8.75487 21.8729 8.23536 21.7316C7.65928 21.5935 7.23043 21.2516 7.00026 20.8012C6.85623 20.5186 6.73857 20.1805 6.73857 19.8424L6.88581 19.1945C6.94303 18.912 7.08641 18.6325 7.31787 18.4067L9.73215 15.5883Z" fill="black"/>
</g>
</svg>
