<svg width="41" height="46" viewBox="0 0 41 46" fill="none" xmlns="http://www.w3.org/2000/svg">
<g id="Group 4">
<path id="Vector" fill-rule="evenodd" clip-rule="evenodd" d="M30.1087 19.9276C30.3684 20.4289 30.5679 20.9585 30.7032 21.5055C33.579 23.1295 36.2418 25.8078 37.3448 29.1795C37.9446 31.0086 38.041 32.9624 37.6242 34.8404C36.9613 37.7184 35.3176 40.284 32.9684 42.1075C28.5222 45.5996 21.7928 46.546 15.3821 44.9857C11.3119 43.9933 7.74669 42.3322 5.19318 38.9427C2.48747 35.3587 2.39972 31.6792 1.33606 30.0782C2.72585 30.9153 4.25014 31.5118 5.8432 31.8419C4.4984 27.3716 6.44487 23.922 10.7335 21.3552C10.8911 20.7802 10.9484 20.2796 11.2117 19.8126C9.95818 18.0648 10.5581 15.344 10.533 13.1664C12.8931 13.1664 14.7608 13.476 16.7592 14.9566C19.481 13.9784 22.1205 14.0721 24.708 14.8983C26.5255 13.3397 29.0934 13.3964 30.6172 13.3362C30.5259 15.5156 31.21 17.6898 30.1087 19.9276Z" fill="#EF7D00"/>
<path id="Vector_2" fill-rule="evenodd" clip-rule="evenodd" d="M13.1312 18.231C12.3576 16.8476 12.9861 14.9566 12.6853 14.2472C13.432 14.5904 14.6551 14.042 16.0643 15.4147C14.93 16.1799 13.9377 17.1326 13.1312 18.231Z" fill="#28303F" stroke="#28303F" stroke-width="0.57" stroke-miterlimit="2.61"/>
<path id="Vector_3" fill-rule="evenodd" clip-rule="evenodd" d="M13.3533 17.3111C12.9414 16.8388 13.3963 15.3829 13.1742 14.7443C13.5324 14.8451 14.9756 14.4895 15.7259 15.3988C14.8536 15.9307 14.0558 16.5736 13.3533 17.3111Z" fill="#FBF0DC"/>
<path id="Vector_4" fill-rule="evenodd" clip-rule="evenodd" d="M30.6925 18.2328C31.3353 16.7857 30.5349 14.9601 30.7695 14.226C30.0532 14.6346 28.7997 14.1976 27.5122 15.6907C28.7128 16.3505 29.7888 17.2105 30.6925 18.2328Z" fill="#28303F" stroke="#28303F" stroke-width="0.57" stroke-miterlimit="2.61"/>
<path id="Vector_5" fill-rule="evenodd" clip-rule="evenodd" d="M30.3863 17.3359C30.7534 16.83 30.1678 15.4201 30.3254 14.7638C29.9673 14.8965 28.5078 14.6718 27.8435 15.6483C28.7628 16.0975 29.6178 16.6649 30.3863 17.3359Z" fill="#FBF0DC"/>
<path id="Vector_6" fill-rule="evenodd" clip-rule="evenodd" d="M11.747 26.779C11.6002 24.4138 11.8079 22.2538 12.6961 20.3645C17.2373 22.873 19.5741 27.5591 20.9332 33.22C18.6412 32.9493 14.1913 29.689 11.747 26.779Z" fill="white"/>
<path id="Vector_7" fill-rule="evenodd" clip-rule="evenodd" d="M13.1312 18.231C12.3576 16.8476 12.9861 14.9566 12.6853 14.2472C13.432 14.5904 14.6551 14.042 16.0643 15.4147C14.93 16.1799 13.9377 17.1326 13.1312 18.231Z" fill="#28303F" stroke="#28303F" stroke-width="0.57" stroke-miterlimit="2.61"/>
<path id="Vector_8" fill-rule="evenodd" clip-rule="evenodd" d="M13.3533 17.3111C12.9414 16.8388 13.3963 15.3829 13.1742 14.7443C13.5324 14.8451 14.9756 14.4895 15.7259 15.3988C14.8536 15.9307 14.0558 16.5736 13.3533 17.3111Z" fill="#FBF0DC"/>
<path id="Vector_9" fill-rule="evenodd" clip-rule="evenodd" d="M30.6925 18.2328C31.3353 16.7857 30.5349 14.9601 30.7695 14.226C30.0532 14.6346 28.7997 14.1976 27.5122 15.6907C28.7128 16.3505 29.7888 17.2105 30.6925 18.2328Z" fill="#28303F" stroke="#28303F" stroke-width="0.57" stroke-miterlimit="2.61"/>
<path id="Vector_10" fill-rule="evenodd" clip-rule="evenodd" d="M30.3863 17.3359C30.7534 16.83 30.1678 15.4201 30.3254 14.7638C29.9673 14.8965 28.5078 14.6718 27.8435 15.6483C28.7628 16.0975 29.6178 16.6649 30.3863 17.3359Z" fill="#FBF0DC"/>
<path id="Vector_11" fill-rule="evenodd" clip-rule="evenodd" d="M11.747 26.779C11.6002 24.4138 11.8079 22.2538 12.6961 20.3645C17.2373 22.873 19.5741 27.5591 20.9332 33.22C18.6412 32.9493 14.1913 29.689 11.747 26.779Z" fill="white"/>
<path id="Vector_12" fill-rule="evenodd" clip-rule="evenodd" d="M16.9454 14.7867L16.7663 14.8416C14.4295 12.8213 11.0935 13.1911 10.4667 13.0354C10.3378 14.4347 9.89013 17.4456 11.0505 20.1415C10.3521 22.2538 10.0907 26.2853 10.3861 27.1646C11.0111 28.9973 16.1987 32.5901 19.1605 33.1792C19.6129 33.2729 20.0735 33.3221 20.5357 33.326C21.112 33.3436 21.6883 33.2943 22.253 33.1792C25.2094 32.5884 30.397 28.9955 31.0273 27.1646C31.3228 26.28 31.0613 22.2538 30.363 20.1415C31.5215 17.4456 31.0792 14.4347 30.9467 13.0354C30.32 13.1911 26.9947 12.786 24.6489 14.8044C21.9307 13.8987 19.4362 14.0101 16.9454 14.7867Z" fill="#28303F"/>
<path id="Vector_13" fill-rule="evenodd" clip-rule="evenodd" d="M37.1389 28.8876C36.1057 25.8626 33.853 23.4461 30.7032 21.5055C33.579 23.1294 36.2418 25.8077 37.3448 29.1795C37.9446 31.0085 38.041 32.9623 37.6242 34.8403C36.9613 37.7183 35.3176 40.2839 32.9684 42.1075C28.5222 45.5995 21.7928 46.5459 15.3821 44.9857C11.3119 43.9932 7.74669 42.3321 5.19318 38.9427C2.48747 35.3587 2.39972 31.6791 1.33606 30.0781C2.72585 30.9152 4.25014 31.5117 5.8432 31.8418C4.4984 27.3715 6.44487 23.9219 10.7335 21.3551C6.50217 24.4597 5.24332 28.9353 7.85234 32.254C9.03061 32.645 12.8519 31.9674 15.5612 32.5247C19.9394 33.7772 25.3312 34.4494 29.6539 32.0754C25.2237 35.1924 17.6832 33.4605 13.527 35.7001C14.4492 37.1153 14.7805 38.9869 17.4343 40.0271C16.0572 40.3331 14.904 41.1416 13.5968 41.2884C17.1782 43.8393 20.8867 44.9839 24.6991 44.784C28.1837 44.6071 31.3246 43.4554 33.862 41.023C34.9828 39.945 35.8832 38.6639 36.514 37.2497C37.7728 34.4635 38.1309 31.7941 37.1389 28.8876Z" fill="#28303F"/>
<path id="Vector_14" fill-rule="evenodd" clip-rule="evenodd" d="M20.2724 45.2015C10.9609 44.9609 5.31667 40.2058 3.5636 32.76C6.36959 33.71 10.4129 32.8891 12.8501 32.7317C15.2818 32.6433 17.6562 32.9086 19.9394 33.7754C16.3723 33.5985 12.8053 34.7484 10.4899 34.483C12.1481 35.2526 12.7498 38.6296 15.631 39.9192C14.028 40.5006 12.2966 40.6466 10.6171 40.342C12.8017 41.4742 15.1887 44.2993 20.2724 45.2015Z" fill="white"/>
<path id="Vector_15" fill-rule="evenodd" clip-rule="evenodd" d="M19.5759 32.4699C18.1989 28.5781 16.7914 23.1967 11.5178 20.2991C10.5294 18.1355 10.4972 15.6748 10.7031 13.2849C12.3613 13.2672 14.7876 13.299 16.7592 15.0751C16.8157 15.0607 16.8713 15.0429 16.9257 15.0221C19.4492 14.124 22.2134 14.1403 24.7259 15.0681C26.6956 13.299 29.1346 13.2654 30.7856 13.2849C30.9915 15.6748 30.9646 18.1355 29.9708 20.2991C24.6955 23.1967 23.288 28.5869 21.9127 32.4699C21.1428 32.3042 20.3458 32.3042 19.5759 32.4699Z" fill="#EF7D00"/>
<path id="Vector_16" fill-rule="evenodd" clip-rule="evenodd" d="M0.284909 15.6589L7.90783 9.61944C7.89915 9.57336 7.89495 9.52656 7.8953 9.47969V5.08722C7.8953 4.71572 8.14957 4.41322 8.46115 4.41322H10.0029C10.3145 4.42206 10.5706 4.71572 10.5706 5.08722V7.51077L19.7639 0.224183C19.9895 0.070388 20.259 -0.00795717 20.5329 0.000638818C20.8068 0.00923481 21.0708 0.10432 21.286 0.271947L40.654 15.6111C41.0873 15.9649 41.116 16.4956 40.7131 16.8158L39.0764 18.1125L21.2949 4.02403C21.08 3.85588 20.816 3.76047 20.5419 3.75186C20.2678 3.74326 19.9982 3.82194 19.7729 3.97627L1.92159 18.1125L0.344002 16.8636C-0.0893429 16.5186 -0.117994 15.9773 0.284909 15.6589Z" fill="#1D1D1B"/>
<path id="Vector_17" fill-rule="evenodd" clip-rule="evenodd" d="M29.5285 18.2204C30.1714 16.7751 29.9977 15.1671 29.79 14.272C29.507 14.341 27.6304 14.1853 26.3483 15.6872C27.5471 16.3458 28.6228 17.2026 29.5285 18.2204Z" fill="#28303F" stroke="#28303F" stroke-width="0.57" stroke-miterlimit="2.61"/>
<path id="Vector_18" fill-rule="evenodd" clip-rule="evenodd" d="M29.4533 17.8542C29.7452 17.2563 30.0979 15.841 29.7362 14.3551C29.0862 14.2967 27.2758 14.5762 26.4449 15.6571C27.5472 16.2463 28.5599 16.9859 29.4533 17.8542Z" fill="white"/>
<path id="Vector_19" fill-rule="evenodd" clip-rule="evenodd" d="M12.0031 18.2204C11.3603 16.7751 11.5322 15.1671 11.7417 14.272C12.0246 14.341 13.9013 14.1853 15.1834 15.6872C13.9838 16.3448 12.908 17.2017 12.0031 18.2204Z" fill="#28303F" stroke="#28303F" stroke-width="0.57" stroke-miterlimit="2.61"/>
<path id="Vector_20" fill-rule="evenodd" clip-rule="evenodd" d="M12.0712 17.8542C11.7793 17.2563 11.4248 15.841 11.7883 14.3551C12.4383 14.2967 14.2487 14.5762 15.0796 15.6571C13.9773 16.2463 12.9646 16.9859 12.0712 17.8542Z" fill="white"/>
<path id="Vector_21" fill-rule="evenodd" clip-rule="evenodd" d="M31.6558 39.6362C28.8087 43.5634 22.4392 44.9839 18.4603 43.9013C24.3409 44.6549 29.3333 42.196 31.9209 38.3466C32.1678 38.9788 32.2371 39.6652 32.1214 40.3332C37.0798 36.2167 37.5311 27.5962 31.9424 22.2892C36.8828 26.7595 38.926 35.8823 31.6236 41.4264C31.7454 40.8367 31.7563 40.2298 31.6558 39.6362Z" fill="#28303F" stroke="#28303F" stroke-width="0.22" stroke-miterlimit="2.61"/>
<path id="Vector_22" fill-rule="evenodd" clip-rule="evenodd" d="M30.8447 27.1026C31.1598 26.1473 30.8608 22.1883 29.9708 20.299C27.9026 21.4417 26.1065 22.8198 24.8369 24.7657C23.3202 27.0743 22.4768 30.0728 21.7408 33.1597C24.0777 33.0005 30.1123 29.1352 30.8447 27.1026Z" fill="white"/>
<path id="Vector_23" fill-rule="evenodd" clip-rule="evenodd" d="M28.0601 26.4746C28.0927 26.4746 28.1241 26.4871 28.1475 26.5096C28.1709 26.5321 28.1845 26.5627 28.1854 26.5949C28.1818 26.6265 28.1657 26.6555 28.1405 26.6754C28.1153 26.6953 28.0832 26.7045 28.0511 26.701C28.0185 26.701 27.9871 26.6885 27.9637 26.666C27.9403 26.6436 27.9267 26.613 27.9258 26.5807C27.9294 26.5491 27.9455 26.5201 27.9707 26.5002C27.9959 26.4803 28.028 26.4711 28.0601 26.4746Z" fill="white"/>
<path id="Vector_24" fill-rule="evenodd" clip-rule="evenodd" d="M27.5355 25.3938C27.601 25.515 27.6503 25.644 27.6823 25.7777C27.7156 25.9162 27.7324 26.0581 27.7324 26.2005C27.7376 26.5507 27.6298 26.8933 27.4244 27.1788C27.3383 27.3027 27.2239 27.4049 27.0905 27.4771C26.9571 27.5493 26.8083 27.5895 26.6562 27.5945C26.5288 27.5917 26.4032 27.5631 26.2874 27.5105C26.1716 27.4579 26.068 27.3823 25.9829 27.2885C25.7868 27.0724 25.6575 26.8054 25.6105 26.5189V26.4782L26.7153 25.5442L27.5158 25.3461L27.5426 25.3938H27.5355ZM27.5355 25.8113C27.5093 25.7071 27.4727 25.6058 27.4262 25.5088L26.7673 25.6733L25.7573 26.5349C25.804 26.7799 25.918 27.0075 26.0868 27.1929C26.1587 27.2726 26.2462 27.3369 26.3442 27.3819C26.4421 27.4269 26.5483 27.4517 26.6562 27.4547C26.7856 27.4503 26.912 27.4159 27.0255 27.3545C27.139 27.293 27.2364 27.2062 27.3098 27.1009C27.4956 26.8429 27.5935 26.5331 27.5892 26.2164C27.5905 26.0801 27.5755 25.9441 27.5444 25.8113H27.5355Z" fill="#28303F"/>
<path id="Vector_25" fill-rule="evenodd" clip-rule="evenodd" d="M26.6867 26.0413C26.3411 26.3172 26.3554 26.9948 26.7368 27.2177C27.1379 26.9877 27.0968 26.1934 26.6867 26.0413Z" fill="#28303F"/>
<path id="Vector_26" fill-rule="evenodd" clip-rule="evenodd" d="M26.6419 26.4092C26.6745 26.4092 26.7059 26.4217 26.7293 26.4442C26.7527 26.4666 26.7663 26.4972 26.7672 26.5295C26.7636 26.5611 26.7475 26.5901 26.7223 26.61C26.6971 26.6299 26.665 26.6391 26.6329 26.6356C26.6003 26.6356 26.5689 26.6231 26.5455 26.6006C26.5221 26.5781 26.5085 26.5475 26.5076 26.5153C26.5112 26.4837 26.5273 26.4547 26.5525 26.4348C26.5777 26.4149 26.6098 26.4057 26.6419 26.4092Z" fill="white"/>
<path id="Vector_27" fill-rule="evenodd" clip-rule="evenodd" d="M24.9677 28.4153C24.9677 27.177 25.29 25.9723 26.4737 25.2948C27.3797 24.9003 28.2088 25.1851 28.669 24.6951C28.6008 24.836 28.541 24.9807 28.49 25.1285C28.3786 25.4282 28.3317 25.7475 28.3521 26.0661C28.3765 26.3374 28.3621 26.6107 28.3091 26.878C28.1461 27.4406 27.7361 27.69 27.2347 27.9111C26.488 28.2419 25.8021 28.4719 24.9641 28.4153H24.9677ZM27.2132 27.8174C27.6376 27.5963 27.9671 27.3911 28.1838 26.9488C28.4792 26.3456 28.2196 25.7618 28.2106 25.3355C27.7898 25.5336 27.2884 25.599 26.6832 25.9794C26.315 26.216 25.9849 26.5058 25.7037 26.8391C25.3069 27.2761 25.0693 27.8315 25.0286 28.4171C25.7927 28.3789 26.5387 28.1741 27.2132 27.8174Z" fill="#28303F"/>
<path id="Vector_28" fill-rule="evenodd" clip-rule="evenodd" d="M10.6422 27.1026C10.327 26.1473 10.6261 22.1883 11.516 20.299C13.5843 21.4417 15.3803 22.8198 16.6589 24.7657C18.1756 27.0743 19.019 30.0728 19.755 33.1597C17.4092 33.0005 11.3746 29.1352 10.6422 27.1026Z" fill="white"/>
<path id="Vector_29" fill-rule="evenodd" clip-rule="evenodd" d="M13.4356 26.4746C13.403 26.4746 13.3717 26.4871 13.3483 26.5096C13.3249 26.5321 13.3112 26.5627 13.3103 26.5949C13.3139 26.6265 13.3301 26.6555 13.3552 26.6754C13.3804 26.6953 13.4126 26.7045 13.4446 26.701C13.4772 26.701 13.5086 26.6885 13.532 26.666C13.5554 26.6436 13.569 26.613 13.57 26.5807C13.5664 26.5491 13.5502 26.5201 13.525 26.5002C13.4998 26.4803 13.4677 26.4711 13.4356 26.4746Z" fill="white"/>
<path id="Vector_30" fill-rule="evenodd" clip-rule="evenodd" d="M13.9514 25.3938C13.8859 25.515 13.8366 25.644 13.8046 25.7777C13.7713 25.9162 13.7545 26.0581 13.7545 26.2005C13.7492 26.5507 13.8571 26.8933 14.0625 27.1788C14.148 27.303 14.2619 27.4055 14.3951 27.4781C14.5283 27.5506 14.6769 27.5911 14.8289 27.5963C14.9564 27.5938 15.082 27.5654 15.1979 27.5127C15.3137 27.46 15.4173 27.3843 15.5022 27.2902C15.6995 27.0748 15.8295 26.8075 15.8764 26.5207V26.48L14.7787 25.5442L13.9729 25.3461L13.9461 25.3938H13.9514ZM13.9514 25.8113C13.9775 25.7071 14.0141 25.6058 14.0607 25.5088L14.7196 25.6733L15.7278 26.5349C15.6837 26.7788 15.5721 27.006 15.4055 27.1912C15.3334 27.271 15.2455 27.3354 15.1473 27.3805C15.049 27.4255 14.9425 27.4502 14.8342 27.453C14.7052 27.4482 14.5791 27.4137 14.4659 27.3523C14.3528 27.2909 14.2557 27.2042 14.1824 27.0992C13.9966 26.8411 13.8988 26.5313 13.9031 26.2147C13.9001 26.0792 13.9133 25.9438 13.9425 25.8113H13.9514Z" fill="#28303F"/>
<path id="Vector_31" fill-rule="evenodd" clip-rule="evenodd" d="M14.8002 26.0413C15.1458 26.3172 15.1315 26.9948 14.7501 27.2177C14.3489 26.9877 14.3901 26.1934 14.8002 26.0413Z" fill="#28303F"/>
<path id="Vector_32" fill-rule="evenodd" clip-rule="evenodd" d="M14.845 26.4092C14.8123 26.4092 14.781 26.4217 14.7576 26.4442C14.7342 26.4666 14.7205 26.4972 14.7196 26.5295C14.7232 26.5611 14.7394 26.5901 14.7645 26.61C14.7897 26.6299 14.8219 26.6391 14.8539 26.6356C14.8865 26.6356 14.9179 26.6231 14.9413 26.6006C14.9647 26.5781 14.9783 26.5475 14.9793 26.5153C14.9757 26.4837 14.9595 26.4547 14.9343 26.4348C14.9091 26.4149 14.877 26.4057 14.845 26.4092Z" fill="white"/>
<path id="Vector_33" fill-rule="evenodd" clip-rule="evenodd" d="M16.5192 28.4153C16.5192 27.177 16.1969 25.9723 15.0132 25.2948C14.1072 24.9003 13.2781 25.1851 12.8179 24.6951C12.8861 24.836 12.9459 24.9807 12.9969 25.1285C13.1083 25.4282 13.1552 25.7475 13.1348 26.0661C13.1103 26.3374 13.1248 26.6107 13.1778 26.878C13.3407 27.4406 13.7508 27.69 14.2522 27.9111C14.9989 28.2419 15.6847 28.4719 16.5228 28.4153H16.5192ZM14.2737 27.8174C13.8475 27.5963 13.5198 27.3911 13.3031 26.9488C13.0077 26.3456 13.2673 25.7618 13.2745 25.3355C13.6971 25.5336 14.1985 25.599 14.8037 25.9794C15.1719 26.216 15.502 26.5058 15.7832 26.8391C16.18 27.2761 16.4176 27.8315 16.4583 28.4171C15.6942 28.3791 14.9481 28.1743 14.2737 27.8174Z" fill="#28303F"/>
<path id="Vector_34" fill-rule="evenodd" clip-rule="evenodd" d="M20.7058 33.5313C20.054 33.4764 19.0942 33.0306 19.053 32.5654C19.3646 32.1196 19.8427 31.8578 20.7058 31.8365C21.5689 31.8613 22.0452 32.1196 22.3586 32.5654C22.3245 33.0306 21.3576 33.4764 20.7058 33.5313Z" fill="#1D1D1B"/>
</g>
</svg>
