<svg width="77" height="86" viewBox="0 0 77 86" fill="none" xmlns="http://www.w3.org/2000/svg">
<g id="&#208;&#161;&#208;&#187;&#208;&#190;&#208;&#185; 2">
<g id="1">
<g id="Group 4">
<path id="Vector" fill-rule="evenodd" clip-rule="evenodd" d="M54.022 32.9044C54.4452 33.7196 54.7703 34.5808 54.9907 35.4703C59.6768 38.111 64.0157 42.4662 65.8131 47.9489C66.7905 50.9232 66.9476 54.1002 66.2683 57.154C65.1882 61.8338 62.5099 66.0057 58.6818 68.971C51.4367 74.6493 40.4713 76.1883 30.0253 73.6512C23.393 72.0374 17.5835 69.3363 13.4226 63.8248C9.01365 57.9968 8.87067 52.0135 7.13745 49.4102C9.4021 50.7714 11.8859 51.7413 14.4818 52.2782C12.2904 45.0091 15.4622 39.3997 22.4505 35.2258C22.7073 34.2909 22.8006 33.4769 23.2296 32.7175C21.1871 29.8754 22.1645 25.4512 22.1237 21.9102C25.9695 21.9102 29.0128 22.4136 32.2692 24.8213C36.7044 23.2305 41.0053 23.383 45.2216 24.7263C48.1833 22.1921 52.3675 22.2841 54.8507 22.1863C54.7019 25.7303 55.8165 29.2656 54.022 32.9044Z" fill="#EF7D00"/>
<path id="Vector_2" fill-rule="evenodd" clip-rule="evenodd" d="M26.3575 30.1455C25.097 27.896 26.1212 24.821 25.631 23.6675C26.8477 24.2255 28.8407 23.3338 31.137 25.566C29.2886 26.8102 27.6717 28.3595 26.3575 30.1455Z" fill="#28303F" stroke="#28303F" stroke-width="0.57" stroke-miterlimit="2.61"/>
<path id="Vector_3" fill-rule="evenodd" clip-rule="evenodd" d="M26.7193 28.65C26.0482 27.8819 26.7894 25.5145 26.4276 24.4761C27.0111 24.64 29.3629 24.0618 30.5855 25.5404C29.164 26.4053 27.8642 27.4508 26.7193 28.65Z" fill="#FBF0DC"/>
<path id="Vector_4" fill-rule="evenodd" clip-rule="evenodd" d="M54.9732 30.1488C56.0207 27.7957 54.7164 24.8271 55.0986 23.6333C53.9315 24.2978 51.889 23.5873 49.791 26.0151C51.7474 27.0879 53.5006 28.4864 54.9732 30.1488Z" fill="#28303F" stroke="#28303F" stroke-width="0.57" stroke-miterlimit="2.61"/>
<path id="Vector_5" fill-rule="evenodd" clip-rule="evenodd" d="M54.4743 28.6904C55.0724 27.8677 54.1183 25.575 54.3751 24.5078C53.7915 24.7236 51.4134 24.3582 50.3309 25.9461C51.8289 26.6765 53.2221 27.5992 54.4743 28.6904Z" fill="#FBF0DC"/>
<path id="Vector_6" fill-rule="evenodd" clip-rule="evenodd" d="M24.102 44.0452C23.8628 40.1992 24.2012 36.6869 25.6485 33.6147C33.0483 37.6937 36.8561 45.3138 39.0708 54.5188C35.3359 54.0787 28.0849 48.7772 24.102 44.0452Z" fill="white"/>
<path id="Vector_7" fill-rule="evenodd" clip-rule="evenodd" d="M26.3575 30.1455C25.097 27.896 26.1212 24.821 25.631 23.6675C26.8477 24.2255 28.8407 23.3338 31.137 25.566C29.2886 26.8102 27.6717 28.3595 26.3575 30.1455Z" fill="#28303F" stroke="#28303F" stroke-width="0.57" stroke-miterlimit="2.61"/>
<path id="Vector_8" fill-rule="evenodd" clip-rule="evenodd" d="M26.7193 28.65C26.0482 27.8819 26.7894 25.5145 26.4276 24.4761C27.0111 24.64 29.3629 24.0618 30.5855 25.5404C29.164 26.4053 27.8642 27.4508 26.7193 28.65Z" fill="#FBF0DC"/>
<path id="Vector_9" fill-rule="evenodd" clip-rule="evenodd" d="M54.9732 30.1488C56.0207 27.7957 54.7164 24.8271 55.0986 23.6333C53.9315 24.2978 51.889 23.5873 49.791 26.0151C51.7474 27.0879 53.5006 28.4864 54.9732 30.1488Z" fill="#28303F" stroke="#28303F" stroke-width="0.57" stroke-miterlimit="2.61"/>
<path id="Vector_10" fill-rule="evenodd" clip-rule="evenodd" d="M54.4743 28.6904C55.0724 27.8677 54.1183 25.575 54.3751 24.5078C53.7915 24.7236 51.4134 24.3582 50.3309 25.9461C51.8289 26.6765 53.2221 27.5992 54.4743 28.6904Z" fill="#FBF0DC"/>
<path id="Vector_11" fill-rule="evenodd" clip-rule="evenodd" d="M24.102 44.0452C23.8628 40.1992 24.2012 36.6869 25.6485 33.6147C33.0483 37.6937 36.8561 45.3138 39.0708 54.5188C35.3359 54.0787 28.0849 48.7772 24.102 44.0452Z" fill="white"/>
<path id="Vector_12" fill-rule="evenodd" clip-rule="evenodd" d="M32.5726 24.5451L32.2808 24.6343C28.473 21.3492 23.037 21.9504 22.0157 21.6973C21.8056 23.9726 21.0762 28.8686 22.9669 33.2525C21.829 36.6871 21.403 43.2428 21.8844 44.6725C22.9028 47.6526 31.3559 53.495 36.182 54.4529C36.9192 54.6052 37.6698 54.6852 38.423 54.6916C39.362 54.7201 40.3011 54.64 41.2212 54.4529C46.0386 53.4921 54.4917 47.6498 55.5188 44.6725C56.0003 43.2342 55.5743 36.6871 54.4363 33.2525C56.3242 28.8686 55.6035 23.9726 55.3875 21.6973C54.3663 21.9504 48.9478 21.2917 45.1253 24.5738C40.696 23.101 36.6314 23.2823 32.5726 24.5451Z" fill="#28303F"/>
<path id="Vector_13" fill-rule="evenodd" clip-rule="evenodd" d="M65.4776 47.4741C63.794 42.5551 60.1233 38.6257 54.9907 35.4701C59.6768 38.1108 64.0157 42.4659 65.8131 47.9487C66.7905 50.9229 66.9476 54.0999 66.2683 57.1537C65.1882 61.8336 62.5099 66.0054 58.6818 68.9707C51.4367 74.6491 40.4713 76.1881 30.0253 73.6509C23.393 72.0372 17.5835 69.336 13.4226 63.8245C9.01365 57.9966 8.87067 52.0133 7.13745 49.41C9.4021 50.7712 11.8859 51.7411 14.4818 52.2779C12.2904 45.0088 15.4622 39.3995 22.4505 35.2256C15.5555 40.274 13.5043 47.5517 17.7556 52.9482C19.6756 53.5839 25.9024 52.4822 30.3171 53.3883C37.4513 55.4249 46.2371 56.518 53.2808 52.6576C46.062 57.7262 33.7748 54.91 27.0024 58.5518C28.5051 60.853 29.0449 63.8964 33.3692 65.5879C31.1254 66.0855 29.2462 67.4001 27.1162 67.6389C32.952 71.7869 38.9949 73.648 45.2071 73.323C50.8853 73.0353 56.0032 71.1627 60.1379 67.2074C61.9643 65.4544 63.4315 63.3713 64.4593 61.0716C66.5105 56.541 67.0941 52.2003 65.4776 47.4741Z" fill="#28303F"/>
<path id="Vector_14" fill-rule="evenodd" clip-rule="evenodd" d="M37.994 74.002C22.821 73.6108 13.6239 65.8785 10.7673 53.771C15.3396 55.3157 21.9282 53.981 25.8994 53.725C29.8619 53.5811 33.731 54.0126 37.4513 55.4221C31.6389 55.1345 25.8265 57.0043 22.0536 56.5728C24.7556 57.8241 25.736 63.3155 30.4309 65.4125C27.8189 66.3579 24.9975 66.5953 22.2608 66.1C25.8206 67.941 29.7102 72.5349 37.994 74.002Z" fill="white"/>
<path id="Vector_15" fill-rule="evenodd" clip-rule="evenodd" d="M36.859 53.2992C34.6151 46.9707 32.3217 38.2201 23.7285 33.5083C22.1178 29.9903 22.0653 25.9889 22.4009 22.1027C25.1028 22.0739 29.0566 22.1257 32.2691 25.0138C32.3612 24.9902 32.4518 24.9614 32.5405 24.9275C36.6525 23.4672 41.1568 23.4937 45.2508 25.0023C48.4605 22.1257 52.4346 22.071 55.1249 22.1027C55.4605 25.9889 55.4167 29.9903 53.7973 33.5083C45.2012 38.2201 42.9077 46.9851 40.6668 53.2992C39.4122 53.0298 38.1135 53.0298 36.859 53.2992Z" fill="#EF7D00"/>
<path id="Vector_16" fill-rule="evenodd" clip-rule="evenodd" d="M5.42464 25.9632L17.8461 16.1425C17.8319 16.0676 17.8251 15.9915 17.8256 15.9153V8.77274C17.8256 8.16866 18.24 7.67677 18.7477 7.67677H21.26C21.7677 7.69115 22.185 8.16866 22.185 8.77274V12.7137L37.1654 0.86503C37.5329 0.614945 37.9721 0.487549 38.4184 0.501527C38.8648 0.515505 39.2949 0.670121 39.6456 0.942697L71.2054 25.8855C71.9115 26.4608 71.9582 27.3238 71.3017 27.8445L68.6347 29.953L39.6602 7.04392C39.3098 6.77049 38.8797 6.61533 38.4331 6.60135C37.9865 6.58736 37.5472 6.71529 37.18 6.96625L8.09159 29.953L5.52093 27.9221C4.81481 27.3612 4.76812 26.481 5.42464 25.9632Z" fill="#1D1D1B"/>
<path id="Vector_17" fill-rule="evenodd" clip-rule="evenodd" d="M53.0766 30.1285C54.1241 27.7784 53.8411 25.1636 53.5026 23.708C53.0416 23.8202 49.9836 23.5671 47.8944 26.0093C49.848 27.0802 51.6008 28.4735 53.0766 30.1285Z" fill="#28303F" stroke="#28303F" stroke-width="0.57" stroke-miterlimit="2.61"/>
<path id="Vector_18" fill-rule="evenodd" clip-rule="evenodd" d="M52.954 29.5328C53.4297 28.5605 54.0045 26.2592 53.4151 23.8429C52.3559 23.748 49.4059 24.2025 48.052 25.9601C49.848 26.9182 51.4982 28.1209 52.954 29.5328Z" fill="white"/>
<path id="Vector_19" fill-rule="evenodd" clip-rule="evenodd" d="M24.5192 30.1285C23.4717 27.7784 23.7518 25.1636 24.0932 23.708C24.5543 23.8202 27.6122 23.5671 29.7014 26.0093C27.7467 27.0786 25.9937 28.4721 24.5192 30.1285Z" fill="#28303F" stroke="#28303F" stroke-width="0.57" stroke-miterlimit="2.61"/>
<path id="Vector_20" fill-rule="evenodd" clip-rule="evenodd" d="M24.6302 29.5328C24.1546 28.5605 23.5768 26.2592 24.1692 23.8429C25.2283 23.748 28.1783 24.2025 29.5322 25.9601C27.7362 26.9182 26.086 28.1209 24.6302 29.5328Z" fill="white"/>
<path id="Vector_21" fill-rule="evenodd" clip-rule="evenodd" d="M56.543 64.9524C51.9036 71.3384 41.5247 73.6483 35.0411 71.8878C44.6235 73.1132 52.7585 69.1148 56.9749 62.8553C57.3773 63.8834 57.4902 64.9996 57.3017 66.0857C65.3813 59.3919 66.1166 45.3744 57.0099 36.7446C65.0603 44.0137 68.3896 58.8483 56.4905 67.8635C56.6889 66.9045 56.7067 65.9177 56.543 64.9524Z" fill="#28303F" stroke="#28303F" stroke-width="0.22" stroke-miterlimit="2.61"/>
<path id="Vector_22" fill-rule="evenodd" clip-rule="evenodd" d="M55.2212 44.5716C55.7348 43.0183 55.2475 36.5805 53.7973 33.5083C50.4271 35.3666 47.5005 37.6074 45.4317 40.7717C42.9603 44.5256 41.586 49.4014 40.3867 54.421C44.1946 54.1621 54.0278 47.8768 55.2212 44.5716Z" fill="white"/>
<path id="Vector_23" fill-rule="evenodd" clip-rule="evenodd" d="M50.6839 43.5505C50.7371 43.5505 50.7882 43.5709 50.8263 43.6074C50.8645 43.6439 50.8867 43.6937 50.8882 43.7461C50.8823 43.7976 50.856 43.8446 50.815 43.877C50.7739 43.9094 50.7216 43.9243 50.6693 43.9187C50.6162 43.9187 50.5651 43.8983 50.5269 43.8618C50.4888 43.8252 50.4666 43.7755 50.4651 43.7231C50.471 43.6716 50.4973 43.6245 50.5383 43.5922C50.5793 43.5598 50.6317 43.5448 50.6839 43.5505Z" fill="white"/>
<path id="Vector_24" fill-rule="evenodd" clip-rule="evenodd" d="M49.829 41.793C49.9357 41.99 50.0161 42.1998 50.0682 42.4172C50.1225 42.6425 50.1499 42.8732 50.1499 43.1047C50.1585 43.6741 49.9827 44.2313 49.6481 44.6955C49.5078 44.897 49.3214 45.0632 49.1039 45.1806C48.8865 45.298 48.6441 45.3634 48.3963 45.3715C48.1886 45.367 47.9841 45.3205 47.7954 45.2349C47.6066 45.1493 47.4378 45.0264 47.2992 44.8738C46.9796 44.5226 46.7689 44.0883 46.6923 43.6225V43.5563L48.4926 42.0375L49.7969 41.7153L49.8407 41.793H49.829ZM49.829 42.4719C49.7864 42.3025 49.7268 42.1377 49.651 41.98L48.5772 42.2475L46.9315 43.6484C47.0076 44.0469 47.1934 44.417 47.4684 44.7185C47.5855 44.848 47.7282 44.9525 47.8878 45.0257C48.0473 45.0989 48.2204 45.1393 48.3963 45.1442C48.6071 45.1369 48.8131 45.0811 48.9981 44.9812C49.183 44.8813 49.3417 44.7401 49.4613 44.5689C49.7641 44.1493 49.9235 43.6455 49.9165 43.1306C49.9187 42.909 49.8942 42.6878 49.8436 42.4719H49.829Z" fill="#28303F"/>
<path id="Vector_25" fill-rule="evenodd" clip-rule="evenodd" d="M48.4459 42.8457C47.8827 43.2944 47.9061 44.3962 48.5276 44.7586C49.1812 44.3847 49.1141 43.0931 48.4459 42.8457Z" fill="#28303F"/>
<path id="Vector_26" fill-rule="evenodd" clip-rule="evenodd" d="M48.373 43.444C48.4261 43.444 48.4772 43.4644 48.5154 43.501C48.5535 43.5375 48.5757 43.5872 48.5772 43.6396C48.5713 43.6911 48.545 43.7382 48.504 43.7706C48.463 43.8029 48.4106 43.8179 48.3584 43.8122C48.3052 43.8123 48.2541 43.7918 48.216 43.7553C48.1778 43.7188 48.1556 43.669 48.1541 43.6166C48.16 43.5652 48.1863 43.5181 48.2273 43.4857C48.2684 43.4534 48.3207 43.4384 48.373 43.444Z" fill="white"/>
<path id="Vector_27" fill-rule="evenodd" clip-rule="evenodd" d="M45.6447 46.7062C45.6447 44.6926 46.17 42.7336 48.0987 41.6319C49.5751 40.9904 50.9261 41.4536 51.676 40.6567C51.5648 40.8858 51.4674 41.1211 51.3842 41.3615C51.2028 41.8488 51.1263 42.368 51.1596 42.8861C51.1994 43.3273 51.1758 43.7718 51.0895 44.2064C50.824 45.1212 50.1558 45.5268 49.3388 45.8864C48.122 46.4243 47.0045 46.7982 45.6389 46.7062H45.6447ZM49.3038 45.7339C49.9953 45.3743 50.5322 45.0406 50.8853 44.3215C51.3667 43.3406 50.9436 42.3913 50.929 41.6981C50.2433 42.0202 49.4263 42.1267 48.4401 42.7451C47.8402 43.13 47.3022 43.6012 46.844 44.1431C46.1976 44.8537 45.8104 45.7568 45.744 46.7091C46.989 46.647 48.2047 46.314 49.3038 45.7339Z" fill="#28303F"/>
<path id="Vector_28" fill-rule="evenodd" clip-rule="evenodd" d="M22.3017 44.5716C21.7881 43.0183 22.2754 36.5805 23.7256 33.5083C27.0958 35.3666 30.0224 37.6074 32.1058 40.7717C34.5772 44.5256 35.9515 49.4014 37.1508 54.421C33.3284 54.1621 23.4951 47.8768 22.3017 44.5716Z" fill="white"/>
<path id="Vector_29" fill-rule="evenodd" clip-rule="evenodd" d="M26.8535 43.5505C26.8004 43.5505 26.7493 43.5709 26.7111 43.6074C26.673 43.6439 26.6508 43.6937 26.6493 43.7461C26.6552 43.7976 26.6815 43.8446 26.7225 43.877C26.7635 43.9094 26.8159 43.9243 26.8681 43.9187C26.9213 43.9187 26.9724 43.8983 27.0105 43.8618C27.0487 43.8252 27.0709 43.7755 27.0724 43.7231C27.0665 43.6716 27.0402 43.6245 26.9992 43.5922C26.9581 43.5598 26.9058 43.5448 26.8535 43.5505Z" fill="white"/>
<path id="Vector_30" fill-rule="evenodd" clip-rule="evenodd" d="M27.6939 41.793C27.5872 41.99 27.5068 42.1998 27.4547 42.4172C27.4004 42.6425 27.373 42.8732 27.373 43.1047C27.3645 43.6741 27.5403 44.2313 27.8749 44.6955C28.0142 44.8975 28.1999 45.0642 28.4169 45.1822C28.6339 45.3001 28.8761 45.366 29.1237 45.3743C29.3315 45.3704 29.5362 45.3241 29.725 45.2385C29.9138 45.1528 30.0826 45.0297 30.2208 44.8767C30.5425 44.5264 30.7543 44.0918 30.8307 43.6254V43.5592L29.042 42.0375L27.729 41.7153L27.6852 41.793H27.6939ZM27.6939 42.4719C27.7365 42.3025 27.7961 42.1377 27.8719 41.98L28.9457 42.2475L30.5885 43.6484C30.5167 44.0451 30.3349 44.4145 30.0633 44.7156C29.9458 44.8454 29.8026 44.9502 29.6425 45.0234C29.4825 45.0966 29.3089 45.1368 29.1325 45.1413C28.9222 45.1336 28.7167 45.0776 28.5323 44.9777C28.3479 44.8778 28.1897 44.7368 28.0703 44.566C27.7676 44.1464 27.6081 43.6426 27.6152 43.1277C27.6103 42.9074 27.6319 42.6872 27.6794 42.4719H27.6939Z" fill="#28303F"/>
<path id="Vector_31" fill-rule="evenodd" clip-rule="evenodd" d="M29.077 42.8457C29.6401 43.2944 29.6168 44.3962 28.9953 44.7586C28.3417 44.3847 28.4088 43.0931 29.077 42.8457Z" fill="#28303F"/>
<path id="Vector_32" fill-rule="evenodd" clip-rule="evenodd" d="M29.1499 43.444C29.0968 43.444 29.0457 43.4644 29.0075 43.501C28.9694 43.5375 28.9472 43.5872 28.9457 43.6396C28.9515 43.6911 28.9779 43.7382 29.0189 43.7706C29.0599 43.8029 29.1123 43.8179 29.1645 43.8122C29.2177 43.8123 29.2688 43.7918 29.3069 43.7553C29.3451 43.7188 29.3673 43.669 29.3688 43.6166C29.3629 43.5652 29.3366 43.5181 29.2955 43.4857C29.2545 43.4534 29.2022 43.4384 29.1499 43.444Z" fill="white"/>
<path id="Vector_33" fill-rule="evenodd" clip-rule="evenodd" d="M31.8782 46.7062C31.8782 44.6926 31.353 42.7336 29.4242 41.6319C27.9478 40.9904 26.5968 41.4536 25.8469 40.6567C25.9581 40.8858 26.0555 41.1211 26.1387 41.3615C26.3201 41.8488 26.3966 42.368 26.3634 42.8861C26.3235 43.3273 26.3471 43.7718 26.4334 44.2064C26.6989 45.1212 27.3671 45.5268 28.1841 45.8864C29.4009 46.4243 30.5185 46.7982 31.884 46.7062H31.8782ZM28.2192 45.7339C27.5247 45.3743 26.9907 45.0406 26.6377 44.3215C26.1562 43.3406 26.5793 42.3913 26.591 41.6981C27.2796 42.0202 28.0966 42.1267 29.0829 42.7451C29.6827 43.13 30.2207 43.6012 30.6789 44.1431C31.3254 44.8537 31.7125 45.7568 31.779 46.7091C30.5339 46.6473 29.3181 46.3143 28.2192 45.7339Z" fill="#28303F"/>
<path id="Vector_34" fill-rule="evenodd" clip-rule="evenodd" d="M38.7002 55.0253C37.6381 54.9361 36.0741 54.2112 36.007 53.4547C36.5147 52.7298 37.2937 52.3041 38.7002 52.2695C40.1066 52.3098 40.8827 52.7298 41.3934 53.4547C41.3379 54.2112 39.7623 54.9361 38.7002 55.0253Z" fill="#1D1D1B"/>
</g>
<g id="Group 3">
<path id="Vector_35" fill-rule="evenodd" clip-rule="evenodd" d="M36.6924 77.6498L36.5581 78.343C36.9783 78.6681 36.9112 78.2855 37.0717 78.7831C37.1738 79.0996 37.0717 81.4411 37.0542 81.9186C37.0542 82.5572 37.1096 83.2878 37.0542 83.9092C36.9608 85.2065 36.4006 83.8747 36.4006 85.4597C38.0112 85.3072 39.8612 85.7272 41.4193 85.149C43.599 84.3407 44.0162 79.3383 41.5973 77.877C40.6082 77.2758 37.9762 77.4168 36.6807 77.6498H36.6924ZM38.7349 84.5018C38.8603 84.053 38.9304 79.3642 39.0413 78.3977C39.8116 78.3631 40.7482 78.6853 40.9875 79.2204C41.7753 80.9492 41.5623 85.1375 38.7349 84.496V84.5018Z" fill="#28303F"/>
<path id="Vector_36" fill-rule="evenodd" clip-rule="evenodd" d="M20.2413 82.0252L18.7123 77.6614C17.9327 77.4671 17.1185 77.4504 16.3314 77.6125C15.9287 78.6999 16.5006 77.9664 16.5852 78.9674L16.4276 84.3322C16.1359 84.7234 15.8791 84.5796 16.0308 85.3448C16.6156 85.4591 17.2133 85.4949 17.8078 85.4512C18.6832 85.4368 18.8699 85.6324 18.8057 84.7033C18.5857 84.5865 18.3499 84.5013 18.1054 84.4502L18.1871 78.7229C18.5227 79.2321 19.8824 84.1395 20.4864 84.9219C21.2917 84.9622 21.1371 84.9708 21.2918 84.197C21.402 83.7682 21.5444 83.348 21.7178 82.94C22.0095 82.077 22.3013 81.3981 22.5931 80.515C22.7478 80.8027 22.6369 82.5286 22.6165 82.8623C22.4852 85.1636 22.6923 84.2114 21.8958 84.6659C21.8082 85.3419 21.7557 85.3649 22.4793 85.4023C22.9653 85.4695 23.4597 85.449 23.9383 85.3419C24.125 84.3667 23.9383 84.8126 23.4772 84.4387C23.3284 82.9313 23.5356 80.003 23.6582 78.418C24.2067 78.2224 24.4256 78.3087 24.1542 77.4486C21.3238 77.2328 21.9629 77.7966 21.5106 78.9645C21.1838 79.8304 20.8599 81.5247 20.2413 82.0252Z" fill="#28303F"/>
<path id="Vector_37" fill-rule="evenodd" clip-rule="evenodd" d="M66.055 85.2984L67.7503 85.3789L67.7678 84.7518L67.476 84.5965C67.158 84.3635 67.2222 84.119 67.2222 83.2963L69.1421 83.2704L69.6469 84.421C69.1917 84.7087 69.0137 84.5361 69.1684 85.2552H71.917V84.6425C71.2926 84.2829 71.3335 84.7317 71.0621 84.001C70.8929 83.5322 70.7149 83.3193 70.6273 82.8303C71.2722 82.4822 71.5727 82.137 71.7069 81.2884C71.812 80.6268 71.8908 79.5452 71.6048 78.9555C71.2979 78.3935 70.8148 77.9444 70.2276 77.6754C70.1517 77.6409 65.06 76.8959 66.1892 78.2997C66.7903 79.0447 66.4577 78.5873 66.4402 80.6527C66.4402 81.0784 66.4927 84.1477 66.338 84.3923C66.1338 84.7288 65.6932 84.5648 66.0463 85.284L66.055 85.2984ZM67.2659 82.393C67.1142 81.6595 67.3068 79.2288 67.3564 78.3371C69.5448 78.1271 69.8103 78.7311 69.8132 80.4485C69.8132 82.5627 69.3405 82.4822 67.2659 82.393Z" fill="#28303F"/>
<path id="Vector_38" fill-rule="evenodd" clip-rule="evenodd" d="M4.85827 78.1388C5.31055 78.4811 5.38933 78.0554 5.37474 80.0287C5.37474 80.6932 5.46228 81.9704 5.2376 82.4796C4.74448 82.6809 2.99083 82.5314 2.37224 82.4623L2.52105 78.297C2.77782 78.0094 2.73406 78.0094 2.68153 77.506C1.83827 77.506 0.887036 77.4657 0.177991 77.6671L0.0408504 78.3431C0.854939 78.5933 0.732388 78.3891 0.726553 81.0816C0.726553 81.723 0.568987 82.074 0.618591 82.7586C0.70287 83.3477 0.712671 83.9449 0.64777 84.5363L0.0262609 84.7319L0 85.4453C0.70321 85.4453 2.57357 85.4885 3.05502 85.3303L3.0842 84.755L2.46269 84.4961L2.44227 83.3052L5.36015 83.4058L5.32514 84.6629L4.63068 84.7924C4.52272 85.943 5.10046 85.3504 6.25302 85.4137C6.6732 85.4367 6.5915 85.4827 6.92122 85.2929L6.71697 84.7751L6.64402 84.7434C6.52118 84.6987 6.40603 84.6357 6.30263 84.5565C6.24427 83.6302 6.34931 79.0622 6.5594 78.4179C7.02918 78.0583 7.11671 78.3747 7.05544 77.5089C4.86119 77.6728 4.77657 77.1033 4.85827 78.1388Z" fill="#28303F"/>
<path id="Vector_39" fill-rule="evenodd" clip-rule="evenodd" d="M60.8612 77.486C59.9654 77.6989 59.6503 77.8168 59.3264 78.6367C59.0025 79.4565 58.7837 82.5603 59.802 83.2392C60.4323 83.6649 63.2014 84.1712 63.6741 82.3935C63.8789 81.5507 63.9235 80.6777 63.8054 79.8189C63.5136 78.1706 62.7578 77.0171 60.8612 77.4688V77.486ZM61.0713 82.638C60.7649 81.9706 60.9196 81.0559 60.9458 80.2389C60.9925 78.7747 60.9458 78.3663 61.7774 78.3749C62.2851 79.0768 62.1538 79.8678 62.2122 80.8689C62.2735 81.9706 62.4719 82.8825 61.0713 82.638Z" fill="#28303F"/>
<path id="Vector_40" fill-rule="evenodd" clip-rule="evenodd" d="M11.0325 77.4943C10.1105 77.7216 9.78365 77.8942 9.50062 78.7686C9.24968 79.5396 8.9754 82.6261 10.0463 83.2676C10.6765 83.6444 11.6336 83.7307 12.4681 83.5898C13.3026 83.4488 13.7286 83.1008 13.927 82.2896C14.2451 80.9433 14.1225 78.8204 13.1917 77.8625C12.7774 77.4339 11.6832 77.339 11.0413 77.4943H11.0325ZM11.2864 82.6721C11.0208 82.0968 10.8895 77.3045 12.0946 78.5241C12.471 78.9067 12.3864 80.414 12.4331 81.0152C12.5119 82.1946 12.6052 82.7699 11.2864 82.6606V82.6721Z" fill="#28303F"/>
<path id="Vector_41" fill-rule="evenodd" clip-rule="evenodd" d="M30.7662 81.7085C30.7662 80.9951 30.8362 80.9261 30.0571 80.9548C29.5682 80.9716 29.0808 81.0196 28.5982 81.0987C28.4902 82.117 28.7441 81.4611 28.8725 82.0537C29.0388 82.8016 27.8249 83.1439 27.7053 82.1314C27.6723 81.6799 27.6801 81.2265 27.7287 80.7765C28.7441 80.578 30.0075 80.7103 30.6465 80.4888L30.7312 80.4514C30.9529 78.8175 30.5211 77.5346 28.8754 77.3994C27.1567 77.2584 26.3689 78.2624 26.2318 79.8128C26.1063 81.2511 25.9021 83.095 27.6061 83.4834C28.5807 83.7048 30.0951 83.794 30.2147 82.5283C30.2906 81.7258 30.2147 82.0968 30.7574 81.7028L30.7662 81.7085ZM27.8483 79.8991C27.838 79.5105 27.8872 79.1226 27.9942 78.7485C28.1372 78.3228 28.2655 78.2969 28.7849 78.2681V79.9423L27.8483 79.8991Z" fill="#28303F"/>
<path id="Vector_42" fill-rule="evenodd" clip-rule="evenodd" d="M49.6507 81.9908L50.1642 81.7261L50.1292 81.0444C49.6769 80.9005 48.4456 80.9955 47.9875 81.1105C47.8824 82.2612 48.6323 81.4758 48.1479 82.6495C47.7103 82.7904 47.2522 82.8278 47.1296 82.3158C47.0565 81.8246 47.0565 81.3256 47.1296 80.8344L50.1292 80.5208C50.2051 78.9013 50.0679 77.6788 48.4456 77.4285C46.7678 77.1725 45.907 78.0786 45.6619 79.4709C45.5641 80.2503 45.5367 81.0368 45.5802 81.821C45.6998 83.406 47.2171 83.803 48.6236 83.5297C49.6448 83.3312 49.5339 83.0033 49.639 81.9936L49.6507 81.9908ZM47.2405 79.8937C47.2399 79.5053 47.2909 79.1185 47.3922 78.7431C47.5381 78.303 47.6548 78.2857 48.1859 78.2598V79.934L47.2405 79.8937Z" fill="#28303F"/>
<path id="Vector_43" fill-rule="evenodd" clip-rule="evenodd" d="M53.1317 83.9208C53.1813 83.1959 52.9362 82.9801 52.98 82.051C53.0471 80.7307 52.7903 78.7257 54.223 78.346C54.357 78.3107 54.4958 78.2961 54.6344 78.3028C55.1917 78.3949 55.1392 78.8551 55.1509 79.698L54.5907 79.9051C54.5527 80.7853 54.3689 80.5897 57.1205 80.5552C57.2255 79.6318 57.1642 79.9569 56.7032 79.6174C56.7032 78.4668 56.8433 77.6642 55.6411 77.5146C52.2505 77.0947 52.0433 80.187 52.2126 82.7759C52.2505 83.3742 52.4752 84.5392 52.8749 84.9448C53.6453 85.7186 55.4864 85.5806 56.1721 84.8902C56.6857 84.3753 56.4902 83.7079 56.5223 82.8938C56.9746 82.5199 56.922 82.8938 56.8987 81.9388C56.1576 81.9388 55.1042 81.7921 54.5265 82.1373C54.4623 83.2879 54.7103 82.425 54.8182 83.0952C54.9671 83.9438 54.8474 84.7838 53.7299 84.6025C53.2689 84.5191 53.2222 84.2947 53.1317 83.9208Z" fill="#28303F"/>
<path id="Vector_44" fill-rule="evenodd" clip-rule="evenodd" d="M26.2347 85.3821C26.7628 85.6007 29.6486 85.2958 30.6115 85.2872V83.9956C29.6661 83.9956 28.6595 84.0733 27.6936 84.079C26.4681 84.0876 25.8554 83.7367 26.2347 85.3821Z" fill="#28303F"/>
<path id="Vector_45" fill-rule="evenodd" clip-rule="evenodd" d="M45.6357 84.1193C45.5248 84.5331 45.5248 84.9683 45.6357 85.3821C46.1259 85.5921 49.0671 85.2958 50.0125 85.2872V83.9956L45.6357 84.1193Z" fill="#28303F"/>
<path id="Vector_46" fill-rule="evenodd" clip-rule="evenodd" d="M13.8103 85.3304C13.8385 85.14 13.8482 84.9473 13.8395 84.7551C13.8045 84.2977 13.8745 84.4674 13.679 84.3035C13.361 83.9698 10.2593 84.1798 9.57939 84.2114C8.88493 85.5663 9.80407 85.4599 10.8808 85.4397C11.6219 85.4196 13.1917 85.5404 13.8103 85.3304Z" fill="#28303F"/>
<path id="Vector_47" fill-rule="evenodd" clip-rule="evenodd" d="M59.2709 84.2513C59.2272 84.7115 59.1338 84.9043 59.2709 85.353C59.8837 85.5055 62.9445 85.4882 63.5952 85.353V84.2455C62.9183 84.0787 59.9741 84.096 59.2709 84.2513Z" fill="#28303F"/>
<path id="Vector_48" fill-rule="evenodd" clip-rule="evenodd" d="M72.7223 77.4944V75.291H71.9229V74.8422H74.0617V75.291H73.268V77.4973L72.7223 77.4944ZM74.406 77.4944V74.8394H75.223L75.7044 76.6516L76.183 74.8394H77V77.4944H76.4981V75.4032L75.967 77.4944H75.4418L74.9137 75.4032V77.4944H74.406Z" fill="#28303F"/>
</g>
</g>
</g>
</svg>
