<svg width="20" height="20" viewBox="0 0 20 20" fill="none" xmlns="http://www.w3.org/2000/svg">
<g id="map">
<g id="Vector">
<path d="M12 8.5C12 9.60457 11.1046 10.5 10 10.5C8.89543 10.5 8 9.60457 8 8.5C8 7.39543 8.89543 6.5 10 6.5C11.1046 6.5 12 7.39543 12 8.5Z" stroke="#28303F" stroke-width="1.5"/>
<path d="M17 8.35714C17 10.6415 15.302 13.4966 13.4424 15.4028C12.2191 16.6567 10.9259 17.5 10 17.5C9.07413 17.5 7.78087 16.6567 6.55756 15.4028C4.69796 13.4966 3 10.6415 3 8.35714C3 4.57005 6.13401 1.5 10 1.5C13.866 1.5 17 4.57005 17 8.35714Z" stroke="#28303F" stroke-width="1.5"/>
</g>
<path id="Vector_2" d="M13.1542 15.6895C16.569 16.1154 19 17.2131 19 18.5C19 20.1569 14.9706 21.5 10 21.5C5.02944 21.5 1 20.1569 1 18.5C1 17.2131 3.43101 16.1154 6.84581 15.6895" stroke="#28303F" stroke-width="1.5" stroke-linecap="round"/>
</g>
</svg>
