<svg width="24" height="25" viewBox="0 0 24 25" fill="none" xmlns="http://www.w3.org/2000/svg">
<g id="Prices icon">
<path id="Vector 2132" d="M16 20.5L17.7528 21.9023C18.1707 22.2366 18.7777 22.1826 19.1301 21.7799L22 18.5" stroke="#28303F" stroke-width="1.5" stroke-linecap="round" stroke-linejoin="round"/>
<path id="Rectangle 830" d="M22 14.5V6.5H6C3.79086 6.5 2 8.29086 2 10.5V18.5C2 20.7091 3.79086 22.5 6 22.5H13" stroke="#28303F" stroke-width="1.5" stroke-linecap="round" stroke-linejoin="round"/>
<path id="Rectangle 831" d="M22 6.5C22 4.29086 20.2091 2.5 18 2.5H12C9.79086 2.5 8 4.29086 8 6.5V6.5H22V6.5Z" stroke="#28303F" stroke-width="1.5" stroke-linejoin="round"/>
<path id="Rectangle 828" d="M2 12.5L2 16.5L6 16.5C7.10457 16.5 8 15.6046 8 14.5V14.5C8 13.3954 7.10457 12.5 6 12.5L2 12.5Z" stroke="#28303F" stroke-width="1.5" stroke-linejoin="round"/>
</g>
</svg>
