<svg width="24" height="25" viewBox="0 0 24 25" fill="none" xmlns="http://www.w3.org/2000/svg">
<g id="Huge-icon/interface/outline/image-rectangle">
<path id="Vector" d="M22 14.5L19.061 12.3839C17.5338 11.2843 15.4467 11.398 14.0479 12.6569L9.95209 16.3431C8.55331 17.602 6.4662 17.7157 4.93901 16.6161L2 14.5M6 22.5H18C20.2091 22.5 22 20.7091 22 18.5V6.5C22 4.29086 20.2091 2.5 18 2.5H6C3.79086 2.5 2 4.29086 2 6.5V18.5C2 20.7091 3.79086 22.5 6 22.5ZM11 9C11 10.3807 9.88071 11.5 8.5 11.5C7.11929 11.5 6 10.3807 6 9C6 7.61929 7.11929 6.5 8.5 6.5C9.88071 6.5 11 7.61929 11 9Z" stroke="#28303F" stroke-width="1.5" stroke-linecap="round"/>
</g>
</svg>
